<svg width="200" height="200" viewBox="-30 -18 248 248" xmlns="http://www.w3.org/2000/svg" style="background: rgb(255, 255, 255); border-radius: 8px;">
    <defs>
      <pattern id="grid-1-#ccc-#fff-200-200-20-20" width="20" height="20" patternUnits="userSpaceOnUse">
        <path d="M 0 0 L 0 20 20 20 20 0 0 0" fill="#fff" stroke="#ccc" stroke-width="0.5"></path>
      </pattern>
    </defs>
    <rect width="200" height="200" fill="url(#grid-1-#ccc-#fff-200-200-20-20)" style="
    transform: scaleY(-1);
    transform-origin: 0 100px;
  "></rect>
  
    <line x1="20" y1="180" x2="140" y2="180" stroke="#000" stroke-width="1.75" stroke-dasharray="undefined"></line>
    
    <rect x="70" y="169.5" width="20" height="21" fill="#fffd" stroke="#000" stroke-width="1.75" rx="5"></rect>
    
    <text x="80" y="181" width="20" fill="#000" style="dominant-baseline: middle; text-anchor: middle; font: normal 16px sans-serif">
      a
    </text>
  
  
  
    <line x1="140" y1="180" x2="180" y2="20" stroke="#000" stroke-width="1.75" stroke-dasharray="undefined"></line>
    
    <rect x="150" y="89.5" width="20" height="21" fill="#fffd" stroke="#000" stroke-width="1.75" rx="5"></rect>
    
    <text x="160" y="101" width="20" fill="#000" style="dominant-baseline: middle; text-anchor: middle; font: normal 16px sans-serif">
      b
    </text>
  
  
  
    <line x1="180" y1="20" x2="20" y2="60" stroke="#000" stroke-width="1.75" stroke-dasharray="undefined"></line>
    
    <rect x="90" y="29.5" width="20" height="21" fill="#fffd" stroke="#000" stroke-width="1.75" rx="5"></rect>
    
    <text x="100" y="41" width="20" fill="#000" style="dominant-baseline: middle; text-anchor: middle; font: normal 16px sans-serif">
      c
    </text>
  
  
  
    <line x1="20" y1="60" x2="20" y2="180" stroke="#000" stroke-width="1.75" stroke-dasharray="undefined"></line>
    
    <rect x="10" y="109.5" width="20" height="21" fill="#fffd" stroke="#000" stroke-width="1.75" rx="5"></rect>
    
    <text x="20" y="121" width="20" fill="#000" style="dominant-baseline: middle; text-anchor: middle; font: normal 16px sans-serif">
      d
    </text>
  
  
  
    <path fill="none" stroke="#000" stroke-width="1" stroke-dasharray="5,3" d="M 60 180 A 40 40 0 0 0 20.000000000000004 140"></path>
    
    <rect x="40.2842712474619" y="143.3157287525381" width="16" height="16.8" fill="#fffd" stroke="#000" stroke-width="1" rx="5"></rect>
    
    <text x="48.2842712474619" y="152.7157287525381" width="16" fill="#000" style="dominant-baseline: middle; text-anchor: middle; font: normal 12px sans-serif">
      α
    </text>
  
  
  
    <path fill="none" stroke="#000" stroke-width="1" stroke-dasharray="5,3" d="M 153.2995937160944 126.65824309971553 A 54.97474167490214 54.97474167490214 0 0 0 85.02525832509787 180"></path>
    
    <rect x="98.1541694347828" y="128.2793123834255" width="16" height="16.8" fill="#fffd" stroke="#000" stroke-width="1" rx="5"></rect>
    
    <text x="106.1541694347828" y="137.6793123834255" width="16" fill="#000" style="dominant-baseline: middle; text-anchor: middle; font: normal 12px sans-serif">
      β
    </text>
  
  
  
    <path fill="none" stroke="#000" stroke-width="1" stroke-dasharray="5,3" d="M 126.65824309971552 33.299593716094364 A 54.97474167490214 54.97474167490214 0 0 0 166.7004062839056 73.34175690028447"></path>
    
    <rect x="133.12698736769798" y="50.473012632301995" width="16" height="16.8" fill="#fffd" stroke="#000" stroke-width="1" rx="5"></rect>
    
    <text x="141.12698736769798" y="59.87301263230199" width="16" fill="#000" style="dominant-baseline: middle; text-anchor: middle; font: normal 12px sans-serif">
      γ
    </text>
  
  
  
    <path fill="none" stroke="#000" stroke-width="1" stroke-dasharray="5,3" d="M 19.999999999999993 100 A 40 40 0 0 0 58.81182905103986 50.323124176013295"></path>
    
    <rect x="43.52043014426888" y="76.22645901302633" width="16" height="16.8" fill="#fffd" stroke="#000" stroke-width="1" rx="5"></rect>
    
    <text x="51.52043014426888" y="85.62645901302633" width="16" fill="#000" style="dominant-baseline: middle; text-anchor: middle; font: normal 12px sans-serif">
      δ
    </text>
  
  
  </svg>