<svg width="200" height="200" viewBox="-30 -18 248 248" xmlns="http://www.w3.org/2000/svg" style="background: rgb(255, 255, 255); border-radius: 8px;">
    <defs>
      <pattern id="grid-1-#ccc-#fff-200-200-35.714285714285715-35.714285714285715" width="35.714285714285715" height="35.714285714285715" patternUnits="userSpaceOnUse" patternTransform="translate(100, 100)">
        <path d="M 0 0 L 0 35.714285714285715 35.714285714285715 35.714285714285715 35.714285714285715 0 0 0" fill="#fff" stroke="#ccc" stroke-width="0.5"></path>
      </pattern>
    </defs>
    <rect width="200" height="200" fill="url(#grid-1-#ccc-#fff-200-200-35.714285714285715-35.714285714285715)" style="
    transform: scaleY(-1);
    transform-origin: 0 100px;
  "></rect>
  
    <defs>
      <marker id="h-18" markerWidth="10" markerHeight="5" refY="2.5" orient="auto">
        <polygon points="0 0, 10 2.5, 0 5" fill="#aaa"></polygon>
      </marker>
    </defs>
    <line x1="100" y1="100" x2="180" y2="100" stroke="#aaa" stroke-width="2" marker-end="url(#h-18)"></line>
    
    
  
    <defs>
      <marker id="h-19" markerWidth="10" markerHeight="5" refY="2.5" orient="auto">
        <polygon points="0 0, 10 2.5, 0 5" fill="#aaa"></polygon>
      </marker>
    </defs>
    <line x1="100" y1="100" x2="100" y2="20" stroke="#aaa" stroke-width="2" marker-end="url(#h-19)"></line>
    
    
  
    <text x="200" y="89.00000000000001" width="20" fill="#aaa" style="dominant-baseline: middle; text-anchor: middle; font: normal 16px sans-serif">
      x
    </text>
  
    <text x="111.99999999999999" y="1" width="20" fill="#aaa" style="dominant-baseline: middle; text-anchor: middle; font: normal 16px sans-serif">
      y
    </text>
  
    <line x1="28.571428571428566" y1="100" x2="28.571428571428566" y2="105.00000000000001" stroke="#aaa" stroke-width="1.5" stroke-dasharray="undefined"></line>
    
  
    <rect x="16.571428571428566" y="105.6" width="24" height="16.8" fill="#fff" stroke="#aaa" stroke-width="0" rx="5"></rect>
    
    <text x="28.571428571428566" y="115" width="24" fill="#aaa" style="dominant-baseline: middle; text-anchor: middle; font: normal 12px sans-serif">
      -2
    </text>
  
  
    <line x1="64.28571428571428" y1="100" x2="64.28571428571428" y2="105.00000000000001" stroke="#aaa" stroke-width="1.5" stroke-dasharray="undefined"></line>
    
  
    <rect x="52.28571428571428" y="105.6" width="24" height="16.8" fill="#fff" stroke="#aaa" stroke-width="0" rx="5"></rect>
    
    <text x="64.28571428571428" y="115" width="24" fill="#aaa" style="dominant-baseline: middle; text-anchor: middle; font: normal 12px sans-serif">
      -1
    </text>
  
  
    <line x1="100" y1="100" x2="100" y2="105.00000000000001" stroke="#aaa" stroke-width="1.5" stroke-dasharray="undefined"></line>
    
  
    <rect x="92" y="105.6" width="16" height="16.8" fill="#fff" stroke="#aaa" stroke-width="0" rx="5"></rect>
    
    <text x="100" y="115" width="16" fill="#aaa" style="dominant-baseline: middle; text-anchor: middle; font: normal 12px sans-serif">
      0
    </text>
  
  
    <line x1="135.71428571428572" y1="100" x2="135.71428571428572" y2="105.00000000000001" stroke="#aaa" stroke-width="1.5" stroke-dasharray="undefined"></line>
    
  
    <rect x="127.71428571428572" y="105.6" width="16" height="16.8" fill="#fff" stroke="#aaa" stroke-width="0" rx="5"></rect>
    
    <text x="135.71428571428572" y="115" width="16" fill="#aaa" style="dominant-baseline: middle; text-anchor: middle; font: normal 12px sans-serif">
      1
    </text>
  
  
    <line x1="171.42857142857142" y1="100" x2="171.42857142857142" y2="105.00000000000001" stroke="#aaa" stroke-width="1.5" stroke-dasharray="undefined"></line>
    
  
    <rect x="163.42857142857142" y="105.6" width="16" height="16.8" fill="#fff" stroke="#aaa" stroke-width="0" rx="5"></rect>
    
    <text x="171.42857142857142" y="115" width="16" fill="#aaa" style="dominant-baseline: middle; text-anchor: middle; font: normal 12px sans-serif">
      2
    </text>
  
  
    <line x1="100" y1="171.42857142857144" x2="94.99999999999999" y2="171.42857142857144" stroke="#aaa" stroke-width="1.5" stroke-dasharray="undefined"></line>
    
  
    <rect x="78" y="163.02857142857144" width="20" height="16.8" fill="#fff" stroke="#aaa" stroke-width="0" rx="5"></rect>
    
    <text x="88" y="172.42857142857144" width="20" fill="#aaa" style="dominant-baseline: middle; text-anchor: middle; font: normal 12px sans-serif">
      -2
    </text>
  
  
    <line x1="100" y1="135.71428571428572" x2="94.99999999999999" y2="135.71428571428572" stroke="#aaa" stroke-width="1.5" stroke-dasharray="undefined"></line>
    
  
    <rect x="78" y="127.31428571428572" width="20" height="16.8" fill="#fff" stroke="#aaa" stroke-width="0" rx="5"></rect>
    
    <text x="88" y="136.71428571428572" width="20" fill="#aaa" style="dominant-baseline: middle; text-anchor: middle; font: normal 12px sans-serif">
      -1
    </text>
  
  
    <line x1="100" y1="100" x2="94.99999999999999" y2="100" stroke="#aaa" stroke-width="1.5" stroke-dasharray="undefined"></line>
    
  
    <rect x="78" y="91.6" width="20" height="16.8" fill="#fff" stroke="#aaa" stroke-width="0" rx="5"></rect>
    
    <text x="88" y="101" width="20" fill="#aaa" style="dominant-baseline: middle; text-anchor: middle; font: normal 12px sans-serif">
      0
    </text>
  
  
    <line x1="100" y1="64.28571428571428" x2="94.99999999999999" y2="64.28571428571428" stroke="#aaa" stroke-width="1.5" stroke-dasharray="undefined"></line>
    
  
    <rect x="78" y="55.88571428571428" width="20" height="16.8" fill="#fff" stroke="#aaa" stroke-width="0" rx="5"></rect>
    
    <text x="88" y="65.28571428571428" width="20" fill="#aaa" style="dominant-baseline: middle; text-anchor: middle; font: normal 12px sans-serif">
      1
    </text>
  
  
    <line x1="100" y1="28.571428571428584" x2="94.99999999999999" y2="28.571428571428584" stroke="#aaa" stroke-width="1.5" stroke-dasharray="undefined"></line>
    
  
    <rect x="78" y="20.171428571428585" width="20" height="16.8" fill="#fff" stroke="#aaa" stroke-width="0" rx="5"></rect>
    
    <text x="88" y="29.571428571428584" width="20" fill="#aaa" style="dominant-baseline: middle; text-anchor: middle; font: normal 12px sans-serif">
      2
    </text>
  
  
    <circle cx="100" cy="100" r="4" fill="#000"></circle>
    
    <rect x="80" y="69.5" width="40" height="21" fill="#fff" stroke="#000" stroke-width="1.75" rx="5"></rect>
    
    <text x="100" y="81" width="40" fill="#000" style="dominant-baseline: middle; text-anchor: middle; font: normal 16px sans-serif">
      0,0
    </text>
  
  
    
  </svg>