<svg width="200" height="200" viewBox="-24 -14.399999999999999 238.4 238.4" xmlns="http://www.w3.org/2000/svg" style="background: rgb(0, 0, 0); border-radius: 8px;">
    <defs>
      <pattern id="grid-1-#666-#000-200-200-40.816326530612244-40.816326530612244" width="40.816326530612244" height="40.816326530612244" patternUnits="userSpaceOnUse">
        <path d="M 0 0 L 0 40.816326530612244 40.816326530612244 40.816326530612244 40.816326530612244 0 0 0" fill="#000" stroke="#666" stroke-width="0.5"></path>
      </pattern>
    </defs>
    <rect width="200" height="200" fill="url(#grid-1-#666-#000-200-200-40.816326530612244-40.816326530612244)" style="
    transform: scaleY(-1);
    transform-origin: 0 100px;
  "></rect>
  
    <defs>
      <marker id="h-26" markerWidth="10" markerHeight="5" refY="2.5" orient="auto">
        <polygon points="0 0, 10 2.5, 0 5" fill="#aaa"></polygon>
      </marker>
    </defs>
    <line x1="0" y1="200" x2="180" y2="200" stroke="#aaa" stroke-width="2" marker-end="url(#h-26)"></line>
    
    
  
    <defs>
      <marker id="h-27" markerWidth="10" markerHeight="5" refY="2.5" orient="auto">
        <polygon points="0 0, 10 2.5, 0 5" fill="#aaa"></polygon>
      </marker>
    </defs>
    <line x1="0" y1="200" x2="1.1021821192326179e-14" y2="20" stroke="#aaa" stroke-width="2" marker-end="url(#h-27)"></line>
    
    
  
    <text x="200" y="189" width="20" fill="#aaa" style="dominant-baseline: middle; text-anchor: middle; font: normal 16px sans-serif">
      x
    </text>
  
    <text x="11.999999999999998" y="1" width="20" fill="#aaa" style="dominant-baseline: middle; text-anchor: middle; font: normal 16px sans-serif">
      y
    </text>
  
    <defs>
      <marker id="h-28" markerWidth="10" markerHeight="5" refY="2.5" orient="auto">
        <polygon points="0 0, 10 2.5, 0 5" fill="#88f"></polygon>
      </marker>
    </defs>
    <line x1="122.44897959183673" y1="36.734693877551024" x2="154.32103421244983" y2="100.4788031187772" stroke="#88f" stroke-width="2" marker-end="url(#h-28)"></line>
    
    <rect x="132.85714285714286" y="67.05102040816327" width="20" height="21" fill="#000" stroke="#88f" stroke-width="1.75" rx="5"></rect>
    
    <text x="142.85714285714286" y="78.55102040816327" width="20" fill="#88f" style="dominant-baseline: middle; text-anchor: middle; font: normal 16px sans-serif">
      b
    </text>
  
  
    
    <line x1="163.26530612244898" y1="200" x2="163.26530612244898" y2="118.36734693877551" stroke="#88f" stroke-width="1" stroke-dasharray="5,3"></line>
    
  
    <line x1="0" y1="118.36734693877551" x2="163.26530612244898" y2="118.36734693877551" stroke="#88f" stroke-width="1" stroke-dasharray="5,3"></line>
    
  
    <rect x="155.26530612244898" y="203.6" width="16" height="16.8" fill="#000" stroke="#88f" stroke-width="1" rx="5"></rect>
    
    <text x="163.26530612244898" y="213" width="16" fill="#88f" style="dominant-baseline: middle; text-anchor: middle; font: normal 12px sans-serif">
      4
    </text>
  
  
    <rect x="-20" y="109.9673469387755" width="16" height="16.8" fill="#000" stroke="#88f" stroke-width="1" rx="5"></rect>
    
    <text x="-11.999999999999998" y="119.36734693877551" width="16" fill="#88f" style="dominant-baseline: middle; text-anchor: middle; font: normal 12px sans-serif">
      2
    </text>
  
  
  
    <defs>
      <marker id="h-29" markerWidth="10" markerHeight="5" refY="2.5" orient="auto">
        <polygon points="0 0, 10 2.5, 0 5" fill="#f88"></polygon>
      </marker>
    </defs>
    <line x1="0" y1="200" x2="110.44897959183676" y2="52.734693877551024" stroke="#f88" stroke-width="2" marker-end="url(#h-29)"></line>
    
    <rect x="51.224489795918366" y="107.86734693877551" width="20" height="21" fill="#000" stroke="#f88" stroke-width="1.75" rx="5"></rect>
    
    <text x="61.224489795918366" y="119.36734693877551" width="20" fill="#f88" style="dominant-baseline: middle; text-anchor: middle; font: normal 16px sans-serif">
      a
    </text>
  
  
    
    <line x1="122.44897959183673" y1="200" x2="122.44897959183673" y2="36.734693877551024" stroke="#f88" stroke-width="1" stroke-dasharray="5,3"></line>
    
  
    <line x1="0" y1="36.734693877551024" x2="122.44897959183673" y2="36.734693877551024" stroke="#f88" stroke-width="1" stroke-dasharray="5,3"></line>
    
  
    <rect x="114.44897959183673" y="203.6" width="16" height="16.8" fill="#000" stroke="#f88" stroke-width="1" rx="5"></rect>
    
    <text x="122.44897959183673" y="213" width="16" fill="#f88" style="dominant-baseline: middle; text-anchor: middle; font: normal 12px sans-serif">
      3
    </text>
  
  
    <rect x="-20" y="28.334693877551025" width="16" height="16.8" fill="#000" stroke="#f88" stroke-width="1" rx="5"></rect>
    
    <text x="-11.999999999999998" y="37.734693877551024" width="16" fill="#f88" style="dominant-baseline: middle; text-anchor: middle; font: normal 12px sans-serif">
      4
    </text>
  
  
  
    <defs>
      <marker id="h-30" markerWidth="10" markerHeight="5" refY="2.5" orient="auto">
        <polygon points="0 0, 10 2.5, 0 5" fill="#fff"></polygon>
      </marker>
    </defs>
    <line x1="0" y1="200" x2="145.37676230245066" y2="127.31161884877467" stroke="#fff" stroke-width="2" marker-end="url(#h-30)"></line>
    
    <rect x="71.63265306122449" y="148.68367346938777" width="20" height="21" fill="#000" stroke="#fff" stroke-width="1.75" rx="5"></rect>
    
    <text x="81.63265306122449" y="160.18367346938777" width="20" fill="#fff" style="dominant-baseline: middle; text-anchor: middle; font: normal 16px sans-serif">
      c
    </text>
  
  
    
  </svg>