<svg width="400" height="400" viewBox="-24 -14.399999999999999 438.4 438.4" xmlns="http://www.w3.org/2000/svg" style="background: rgb(255, 255, 255); border-radius: 8px;">
    <defs>
      <pattern id="grid-1-#ccc-#fff-400-400-40-40" width="40" height="40" patternUnits="userSpaceOnUse">
        <path d="M 0 0 L 0 40 40 40 40 0 0 0" fill="#fff" stroke="#ccc" stroke-width="0.5"></path>
      </pattern>
    </defs>
    <rect width="400" height="400" fill="url(#grid-1-#ccc-#fff-400-400-40-40)" style="
    transform: scaleY(-1);
    transform-origin: 0 200px;
  "></rect>
  
    <defs>
      <marker id="h-11" markerWidth="10" markerHeight="5" refY="2.5" orient="auto">
        <polygon points="0 0, 10 2.5, 0 5" fill="#aaa"></polygon>
      </marker>
    </defs>
    <line x1="200" y1="200" x2="380" y2="200" stroke="#aaa" stroke-width="2" marker-end="url(#h-11)"></line>
    
    
  
    <defs>
      <marker id="h-12" markerWidth="10" markerHeight="5" refY="2.5" orient="auto">
        <polygon points="0 0, 10 2.5, 0 5" fill="#aaa"></polygon>
      </marker>
    </defs>
    <line x1="200" y1="200" x2="200" y2="20" stroke="#aaa" stroke-width="2" marker-end="url(#h-12)"></line>
    
    
  
    <text x="400" y="189" width="20" fill="#aaa" style="dominant-baseline: middle; text-anchor: middle; font: normal 16px sans-serif">
      x
    </text>
  
    <text x="212" y="1" width="20" fill="#aaa" style="dominant-baseline: middle; text-anchor: middle; font: normal 16px sans-serif">
      y
    </text>
  
    <circle cx="200" cy="200" r="4" fill="#000"></circle>
    
    
  
    <text x="92" y="105" width="150" fill="red" style="dominant-baseline: middle; text-anchor: middle; font: normal 16px sans-serif">
      Electric Field
    </text>
  
    <rect x="220" y="349.5" width="160" height="21" fill="#fff" stroke="#000" stroke-width="1.75" rx="5"></rect>
    
    <text x="300" y="361" width="160" fill="#000" style="dominant-baseline: middle; text-anchor: middle; font: normal 16px sans-serif">
      Right Hand Rule
    </text>
  
  
    <defs>
      <marker id="h-13" markerWidth="10" markerHeight="5" refY="2.5" orient="auto">
        <polygon points="0 0, 10 2.5, 0 5" fill="red"></polygon>
      </marker>
    </defs>
    <line x1="180" y1="240" x2="200" y2="240" stroke="red" stroke-width="2" marker-end="url(#h-13)"></line>
    
    
  
    <defs>
      <marker id="h-14" markerWidth="10" markerHeight="5" refY="2.5" orient="auto">
        <polygon points="0 0, 10 2.5, 0 5" fill="red"></polygon>
      </marker>
    </defs>
    <line x1="220" y1="160" x2="200" y2="160" stroke="red" stroke-width="2" marker-end="url(#h-14)"></line>
    
    
  
    <defs>
      <marker id="h-15" markerWidth="10" markerHeight="5" refY="2.5" orient="auto">
        <polygon points="0 0, 10 2.5, 0 5" fill="red"></polygon>
      </marker>
    </defs>
    <line x1="240" y1="220" x2="240" y2="200" stroke="red" stroke-width="2" marker-end="url(#h-15)"></line>
    
    
  
    <defs>
      <marker id="h-16" markerWidth="10" markerHeight="5" refY="2.5" orient="auto">
        <polygon points="0 0, 10 2.5, 0 5" fill="red"></polygon>
      </marker>
    </defs>
    <line x1="160" y1="180" x2="160" y2="200" stroke="red" stroke-width="2" marker-end="url(#h-16)"></line>
    
    
  
    <defs>
      <marker id="h-17" markerWidth="10" markerHeight="5" refY="2.5" orient="auto">
        <polygon points="0 0, 10 2.5, 0 5" fill="red"></polygon>
      </marker>
    </defs>
    <line x1="160" y1="280" x2="220" y2="280" stroke="red" stroke-width="2" marker-end="url(#h-17)"></line>
    
    
  
    <defs>
      <marker id="h-18" markerWidth="10" markerHeight="5" refY="2.5" orient="auto">
        <polygon points="0 0, 10 2.5, 0 5" fill="red"></polygon>
      </marker>
    </defs>
    <line x1="240" y1="120" x2="180" y2="119.99999999999999" stroke="red" stroke-width="2" marker-end="url(#h-18)"></line>
    
    
  
    <defs>
      <marker id="h-19" markerWidth="10" markerHeight="5" refY="2.5" orient="auto">
        <polygon points="0 0, 10 2.5, 0 5" fill="red"></polygon>
      </marker>
    </defs>
    <line x1="280" y1="240" x2="280" y2="180" stroke="red" stroke-width="2" marker-end="url(#h-19)"></line>
    
    
  
    <defs>
      <marker id="h-20" markerWidth="10" markerHeight="5" refY="2.5" orient="auto">
        <polygon points="0 0, 10 2.5, 0 5" fill="red"></polygon>
      </marker>
    </defs>
    <line x1="120" y1="160" x2="120" y2="220" stroke="red" stroke-width="2" marker-end="url(#h-20)"></line>
    
    
  
    <defs>
      <marker id="h-21" markerWidth="10" markerHeight="5" refY="2.5" orient="auto">
        <polygon points="0 0, 10 2.5, 0 5" fill="red"></polygon>
      </marker>
    </defs>
    <line x1="140" y1="320" x2="240" y2="320" stroke="red" stroke-width="2" marker-end="url(#h-21)"></line>
    
    
  
    <defs>
      <marker id="h-22" markerWidth="10" markerHeight="5" refY="2.5" orient="auto">
        <polygon points="0 0, 10 2.5, 0 5" fill="red"></polygon>
      </marker>
    </defs>
    <line x1="260" y1="80" x2="160" y2="79.99999999999999" stroke="red" stroke-width="2" marker-end="url(#h-22)"></line>
    
    
  
    <defs>
      <marker id="h-23" markerWidth="10" markerHeight="5" refY="2.5" orient="auto">
        <polygon points="0 0, 10 2.5, 0 5" fill="red"></polygon>
      </marker>
    </defs>
    <line x1="320" y1="260" x2="320" y2="160" stroke="red" stroke-width="2" marker-end="url(#h-23)"></line>
    
    
  
    <defs>
      <marker id="h-24" markerWidth="10" markerHeight="5" refY="2.5" orient="auto">
        <polygon points="0 0, 10 2.5, 0 5" fill="red"></polygon>
      </marker>
    </defs>
    <line x1="80" y1="140" x2="80" y2="240" stroke="red" stroke-width="2" marker-end="url(#h-24)"></line>
    
    
  </svg>