<svg width="200" height="200" viewBox="-30 -18 248 248" xmlns="http://www.w3.org/2000/svg" style="background: rgb(255, 255, 255); border-radius: 8px;">
    <defs>
      <pattern id="grid-1-#ccc-#fff-200-200-20-20" width="20" height="20" patternUnits="userSpaceOnUse">
        <path d="M 0 0 L 0 20 20 20 20 0 0 0" fill="#fff" stroke="#ccc" stroke-width="0.5"></path>
      </pattern>
    </defs>
    <rect width="200" height="200" fill="url(#grid-1-#ccc-#fff-200-200-20-20)" style="
    transform: scaleY(-1);
    transform-origin: 0 100px;
  "></rect>
  
    <defs>
      <marker id="h-36" markerWidth="10" markerHeight="5" refY="2.5" orient="auto">
        <polygon points="0 0, 10 2.5, 0 5" fill="#aaa"></polygon>
      </marker>
    </defs>
    <line x1="0" y1="200" x2="180" y2="200" stroke="#aaa" stroke-width="2" marker-end="url(#h-36)"></line>
    
    
  
    <defs>
      <marker id="h-37" markerWidth="10" markerHeight="5" refY="2.5" orient="auto">
        <polygon points="0 0, 10 2.5, 0 5" fill="#aaa"></polygon>
      </marker>
    </defs>
    <line x1="0" y1="200" x2="1.1021821192326179e-14" y2="20" stroke="#aaa" stroke-width="2" marker-end="url(#h-37)"></line>
    
    
  
    <text x="200" y="189" width="20" fill="#aaa" style="dominant-baseline: middle; text-anchor: middle; font: normal 16px sans-serif">
      x
    </text>
  
    <text x="12" y="1" width="20" fill="#aaa" style="dominant-baseline: middle; text-anchor: middle; font: normal 16px sans-serif">
      y
    </text>
  
    <defs>
      <marker id="h-38" markerWidth="10" markerHeight="5" refY="2.5" orient="auto">
        <polygon points="0 0, 10 2.5, 0 5" fill="#000"></polygon>
      </marker>
    </defs>
    <line x1="0" y1="200" x2="105.85786437626906" y2="94.14213562373095" stroke="#000" stroke-width="2" marker-end="url(#h-38)"></line>
    
    
    <line x1="120" y1="200" x2="120" y2="80" stroke="#000" stroke-width="1" stroke-dasharray="5,3"></line>
    
  
    <line x1="0" y1="80" x2="120" y2="80" stroke="#000" stroke-width="1" stroke-dasharray="5,3"></line>
    
  
    <rect x="112" y="203.6" width="16" height="16.8" fill="#fffd" stroke="#000" stroke-width="1" rx="5"></rect>
    
    <text x="120" y="213" width="16" fill="#000" style="dominant-baseline: middle; text-anchor: middle; font: normal 12px sans-serif">
      a
    </text>
  
  
    <rect x="-20" y="71.6" width="16" height="16.8" fill="#fffd" stroke="#000" stroke-width="1" rx="5"></rect>
    
    <text x="-12" y="81" width="16" fill="#000" style="dominant-baseline: middle; text-anchor: middle; font: normal 12px sans-serif">
      b
    </text>
  
  
  
    <circle cx="120" cy="80" r="4" fill="red"></circle>
    
    <rect x="95" y="49.5" width="50" height="21" fill="#fffd" stroke="red" stroke-width="1.75" rx="5"></rect>
    
    <text x="120" y="61" width="50" fill="red" style="dominant-baseline: middle; text-anchor: middle; font: normal 16px sans-serif">
      a+bi
    </text>
  
  
    
  </svg>