<svg width="200" height="200" viewBox="-30 -18 248 248" xmlns="http://www.w3.org/2000/svg" style="background: rgb(255, 255, 255); border-radius: 8px;">
    <defs>
      <pattern id="grid-1-#ccc-#fff-200-200-20-20" width="20" height="20" patternUnits="userSpaceOnUse" patternTransform="translate(0, 0)">
        <path d="M 0 0 L 0 20 20 20 20 0 0 0" fill="#fff" stroke="#ccc" stroke-width="0.5"></path>
      </pattern>
    </defs>
    <rect width="200" height="200" fill="url(#grid-1-#ccc-#fff-200-200-20-20)" style="
    transform: scaleY(-1);
    transform-origin: 0 100px;
  "></rect>
  
    <defs>
      <marker id="h-24" markerWidth="10" markerHeight="5" refY="2.5" orient="auto">
        <polygon points="0 0, 10 2.5, 0 5" fill="#aaa"></polygon>
      </marker>
    </defs>
    <line x1="0" y1="200" x2="180" y2="200" stroke="#aaa" stroke-width="2" marker-end="url(#h-24)"></line>
    
    
  
    <defs>
      <marker id="h-25" markerWidth="10" markerHeight="5" refY="2.5" orient="auto">
        <polygon points="0 0, 10 2.5, 0 5" fill="#aaa"></polygon>
      </marker>
    </defs>
    <line x1="0" y1="200" x2="1.1021821192326179e-14" y2="20" stroke="#aaa" stroke-width="2" marker-end="url(#h-25)"></line>
    
    
  
    <text x="200" y="189" width="20" fill="#aaa" style="dominant-baseline: middle; text-anchor: middle; font: normal 16px sans-serif">
      x
    </text>
  
    <text x="12" y="1" width="20" fill="#aaa" style="dominant-baseline: middle; text-anchor: middle; font: normal 16px sans-serif">
      y
    </text>
  
    <circle cx="0" cy="200" r="4" fill="#000"></circle>
    
    <rect x="-10" y="169.5" width="20" height="21" fill="#fff" stroke="#000" stroke-width="1.75" rx="5"></rect>
    
    <text x="0" y="181" width="20" fill="#000" style="dominant-baseline: middle; text-anchor: middle; font: normal 16px sans-serif">
      a
    </text>
  
  
    
  
    <circle cx="40" cy="180" r="4" fill="#000"></circle>
    
    
  
    <circle cx="80" cy="160" r="4" fill="blue"></circle>
    
    <rect x="70" y="129.5" width="20" height="21" fill="#fff" stroke="blue" stroke-width="1.75" rx="5"></rect>
    
    <text x="80" y="141" width="20" fill="blue" style="dominant-baseline: middle; text-anchor: middle; font: normal 16px sans-serif">
      c
    </text>
  
  
    
  
    <circle cx="120" cy="100" r="4" fill="#000"></circle>
    
    <rect x="110" y="69.5" width="20" height="21" fill="#fff" stroke="#000" stroke-width="1.75" rx="5"></rect>
    
    <text x="120" y="81" width="20" fill="#000" style="dominant-baseline: middle; text-anchor: middle; font: normal 16px sans-serif">
      d
    </text>
  
  
    
    <line x1="120" y1="200" x2="120" y2="100" stroke="#000" stroke-width="1" stroke-dasharray="5,3"></line>
    
  
    <line x1="0" y1="100" x2="120" y2="100" stroke="#000" stroke-width="1" stroke-dasharray="5,3"></line>
    
  
    <rect x="112" y="203.6" width="16" height="16.8" fill="#fff" stroke="#000" stroke-width="1" rx="5"></rect>
    
    <text x="120" y="213" width="16" fill="#000" style="dominant-baseline: middle; text-anchor: middle; font: normal 12px sans-serif">
      6
    </text>
  
  
    <rect x="-20" y="91.6" width="16" height="16.8" fill="#fff" stroke="#000" stroke-width="1" rx="5"></rect>
    
    <text x="-12" y="101" width="16" fill="#000" style="dominant-baseline: middle; text-anchor: middle; font: normal 12px sans-serif">
      5
    </text>
  
  
  
    <circle cx="160" cy="40" r="4" fill="red"></circle>
    
    <rect x="150" y="9.5" width="20" height="21" fill="#fff" stroke="red" stroke-width="1.75" rx="5"></rect>
    
    <text x="160" y="21" width="20" fill="red" style="dominant-baseline: middle; text-anchor: middle; font: normal 16px sans-serif">
      e
    </text>
  
  
    
    <line x1="160" y1="200" x2="160" y2="40" stroke="red" stroke-width="1" stroke-dasharray="5,3"></line>
    
  
    <line x1="0" y1="40" x2="160" y2="40" stroke="red" stroke-width="1" stroke-dasharray="5,3"></line>
    
  
    <rect x="152" y="203.6" width="16" height="16.8" fill="#fff" stroke="red" stroke-width="1" rx="5"></rect>
    
    <text x="160" y="213" width="16" fill="red" style="dominant-baseline: middle; text-anchor: middle; font: normal 12px sans-serif">
      8
    </text>
  
  
    <rect x="-20" y="31.6" width="16" height="16.8" fill="#fff" stroke="red" stroke-width="1" rx="5"></rect>
    
    <text x="-12" y="41" width="16" fill="red" style="dominant-baseline: middle; text-anchor: middle; font: normal 12px sans-serif">
      8
    </text>
  
  
  </svg>