<svg width="200" height="200" viewBox="-24 -14.399999999999999 238.4 238.4" xmlns="http://www.w3.org/2000/svg" style="background: rgb(255, 255, 255); border-radius: 8px;">
    <defs>
      <pattern id="grid-100-#ccc-#fff-200-200-0.5128205128205128-0.5128205128205128" width="51.28205128205128" height="51.28205128205128" patternUnits="userSpaceOnUse">
        <path d="M 0 0 L 0 51.28205128205128 51.28205128205128 51.28205128205128 51.28205128205128 0 0 0" fill="#fff" stroke="#ccc" stroke-width="0.5"></path>
      </pattern>
    </defs>
    <rect width="200" height="200" fill="url(#grid-100-#ccc-#fff-200-200-0.5128205128205128-0.5128205128205128)" style="
    transform: scaleY(-1);
    transform-origin: 0 100px;
  "></rect>
  
    <defs>
      <marker id="arrowhead-4" markerWidth="10" markerHeight="5" refY="2.5" orient="auto">
        <polygon points="0 0, 10 2.5, 0 5" fill="#aaa"></polygon>
      </marker>
      <marker id="arrowbutt-4" markerWidth="4" markerHeight="4" refX="2" refY="2" orient="auto">
        <circle cx="2" cy="2" r="0.5" fill="#aaa"></circle>
      </marker>
    </defs>
    <line x1="0" y1="200" x2="179.99999999999997" y2="200" stroke="#aaa" stroke-width="2" marker-start="url(#arrowbutt-4)" marker-end="url(#arrowhead-4)"></line>
    
    
  
    <defs>
      <marker id="arrowhead-5" markerWidth="10" markerHeight="5" refY="2.5" orient="auto">
        <polygon points="0 0, 10 2.5, 0 5" fill="#aaa"></polygon>
      </marker>
      <marker id="arrowbutt-5" markerWidth="4" markerHeight="4" refX="2" refY="2" orient="auto">
        <circle cx="2" cy="2" r="0.5" fill="#aaa"></circle>
      </marker>
    </defs>
    <line x1="0" y1="200" x2="1.1021821192326178e-14" y2="20.00000000000003" stroke="#aaa" stroke-width="2" marker-start="url(#arrowbutt-5)" marker-end="url(#arrowhead-5)"></line>
    
    
  
    <text x="199.99999999999997" y="211" width="20" fill="#aaa" style="dominant-baseline: middle; text-anchor: middle; font: normal 16px sans-serif">
      x
    </text>
  
    <text x="-10" y="1.0000000000000284" width="20" fill="#aaa" style="dominant-baseline: middle; text-anchor: middle; font: normal 16px sans-serif">
      y
    </text>
  
    <line x1="0" y1="200" x2="0" y2="205" stroke="#aaa" stroke-width="1.5" stroke-dasharray="undefined"></line>
  
    <rect x="-4" y="203.6" width="8" height="16.8" fill="#fff" stroke="#aaa" stroke-width="0" rx="5"></rect>
    
    <text x="0" y="213" width="8" fill="#aaa" style="dominant-baseline: middle; text-anchor: middle; font: normal 12px sans-serif">
      
    </text>
  
  
    <line x1="51.28205128205128" y1="200" x2="51.28205128205128" y2="205" stroke="#aaa" stroke-width="1.5" stroke-dasharray="undefined"></line>
  
    <rect x="35.28205128205128" y="203.6" width="32" height="16.8" fill="#fff" stroke="#aaa" stroke-width="0" rx="5"></rect>
    
    <text x="51.28205128205128" y="213" width="32" fill="#aaa" style="dominant-baseline: middle; text-anchor: middle; font: normal 12px sans-serif">
      100
    </text>
  
  
    <line x1="102.56410256410255" y1="200" x2="102.56410256410255" y2="205" stroke="#aaa" stroke-width="1.5" stroke-dasharray="undefined"></line>
  
    <rect x="86.56410256410255" y="203.6" width="32" height="16.8" fill="#fff" stroke="#aaa" stroke-width="0" rx="5"></rect>
    
    <text x="102.56410256410255" y="213" width="32" fill="#aaa" style="dominant-baseline: middle; text-anchor: middle; font: normal 12px sans-serif">
      200
    </text>
  
  
    <line x1="153.84615384615384" y1="200" x2="153.84615384615384" y2="205" stroke="#aaa" stroke-width="1.5" stroke-dasharray="undefined"></line>
  
    <rect x="137.84615384615384" y="203.6" width="32" height="16.8" fill="#fff" stroke="#aaa" stroke-width="0" rx="5"></rect>
    
    <text x="153.84615384615384" y="213" width="32" fill="#aaa" style="dominant-baseline: middle; text-anchor: middle; font: normal 12px sans-serif">
      300
    </text>
  
  
    <line x1="0" y1="200" x2="-5" y2="200" stroke="#aaa" stroke-width="1.5" stroke-dasharray="undefined"></line>
  
    <rect x="-16" y="191.6" width="8" height="16.8" fill="#fff" stroke="#aaa" stroke-width="0" rx="5"></rect>
    
    <text x="-12" y="201" width="8" fill="#aaa" style="dominant-baseline: middle; text-anchor: middle; font: normal 12px sans-serif">
      
    </text>
  
  
    <line x1="0" y1="148.71794871794873" x2="-5" y2="148.71794871794873" stroke="#aaa" stroke-width="1.5" stroke-dasharray="undefined"></line>
  
    <rect x="-23" y="140.31794871794872" width="32" height="16.8" fill="#fff" stroke="#aaa" stroke-width="0" rx="5"></rect>
    
    <text x="-7" y="149.71794871794873" width="32" fill="#aaa" style="dominant-baseline: middle; text-anchor: middle; font: normal 12px sans-serif">
      100
    </text>
  
  
    <line x1="0" y1="97.43589743589745" x2="-5" y2="97.43589743589745" stroke="#aaa" stroke-width="1.5" stroke-dasharray="undefined"></line>
  
    <rect x="-23" y="89.03589743589744" width="32" height="16.8" fill="#fff" stroke="#aaa" stroke-width="0" rx="5"></rect>
    
    <text x="-7" y="98.43589743589745" width="32" fill="#aaa" style="dominant-baseline: middle; text-anchor: middle; font: normal 12px sans-serif">
      200
    </text>
  
  
    <line x1="0" y1="46.15384615384616" x2="-5" y2="46.15384615384616" stroke="#aaa" stroke-width="1.5" stroke-dasharray="undefined"></line>
  
    <rect x="-23" y="37.75384615384616" width="32" height="16.8" fill="#fff" stroke="#aaa" stroke-width="0" rx="5"></rect>
    
    <text x="-7" y="47.15384615384616" width="32" fill="#aaa" style="dominant-baseline: middle; text-anchor: middle; font: normal 12px sans-serif">
      300
    </text>
  
  
    <defs>
      <marker id="arrowhead-6" markerWidth="10" markerHeight="5" refY="2.5" orient="auto">
        <polygon points="0 0, 10 2.5, 0 5" fill="#000"></polygon>
      </marker>
      <marker id="arrowbutt-6" markerWidth="4" markerHeight="4" refX="2" refY="2" orient="auto">
        <circle cx="2" cy="2" r="0.5" fill="#000"></circle>
      </marker>
    </defs>
    <line x1="0" y1="200" x2="140.16733126852725" y2="50.48817998023759" stroke="#000" stroke-width="2" marker-start="url(#arrowbutt-6)" marker-end="url(#arrowhead-6)"></line>
    
    <rect x="66.92307692307692" y="107.44871794871796" width="20" height="21" fill="#fff" stroke="#000" stroke-width="1.75" rx="5"></rect>
    
    <text x="76.92307692307692" y="118.94871794871796" width="20" fill="#000" style="dominant-baseline: middle; text-anchor: middle; font: normal 16px sans-serif">
      v
    </text>
  
  
    
    <line x1="153.84615384615384" y1="200" x2="153.84615384615384" y2="35.89743589743591" stroke="#000" stroke-width="1" stroke-dasharray="5,3"></line>
  
    <line x1="0" y1="35.89743589743591" x2="153.84615384615384" y2="35.89743589743591" stroke="#000" stroke-width="1" stroke-dasharray="5,3"></line>
  
    <rect x="137.84615384615384" y="203.6" width="32" height="16.8" fill="#fff" stroke="#000" stroke-width="1" rx="5"></rect>
    
    <text x="153.84615384615384" y="213" width="32" fill="#000" style="dominant-baseline: middle; text-anchor: middle; font: normal 12px sans-serif">
      300
    </text>
  
  
    <rect x="-23" y="27.497435897435913" width="32" height="16.8" fill="#fff" stroke="#000" stroke-width="1" rx="5"></rect>
    
    <text x="-7" y="36.89743589743591" width="32" fill="#000" style="dominant-baseline: middle; text-anchor: middle; font: normal 12px sans-serif">
      320
    </text>
  
  
  </svg>