<svg width="200" height="200" viewBox="-24 -14.399999999999999 238.4 238.4" xmlns="http://www.w3.org/2000/svg" style="background: rgb(255, 255, 255); border-radius: 8px;">
    <defs>
      <pattern id="grid-1-#ccc-#fff-200-200-51.282051282051285-51.282051282051285" width="51.282051282051285" height="51.282051282051285" patternUnits="userSpaceOnUse">
        <path d="M 0 0 L 0 51.282051282051285 51.282051282051285 51.282051282051285 51.282051282051285 0 0 0" fill="#fff" stroke="#ccc" stroke-width="0.5"></path>
      </pattern>
    </defs>
    <rect width="200" height="200" fill="url(#grid-1-#ccc-#fff-200-200-51.282051282051285-51.282051282051285)" style="
    transform: scaleY(-1);
    transform-origin: 0 100px;
  "></rect>
  
    <line x1="0" y1="200" x2="0" y2="205" stroke="#aaa" stroke-width="1.5" stroke-dasharray="undefined"></line>
    
  
    <rect x="-8" y="203.6" width="16" height="16.8" fill="#fff" stroke="#aaa" stroke-width="0" rx="5"></rect>
    
    <text x="0" y="213" width="16" fill="#aaa" style="dominant-baseline: middle; text-anchor: middle; font: normal 12px sans-serif">
      0
    </text>
  
  
    <line x1="51.282051282051285" y1="200" x2="51.282051282051285" y2="205" stroke="#aaa" stroke-width="1.5" stroke-dasharray="undefined"></line>
    
  
    <rect x="43.282051282051285" y="203.6" width="16" height="16.8" fill="#fff" stroke="#aaa" stroke-width="0" rx="5"></rect>
    
    <text x="51.282051282051285" y="213" width="16" fill="#aaa" style="dominant-baseline: middle; text-anchor: middle; font: normal 12px sans-serif">
      1
    </text>
  
  
    <line x1="102.56410256410257" y1="200" x2="102.56410256410257" y2="205" stroke="#aaa" stroke-width="1.5" stroke-dasharray="undefined"></line>
    
  
    <rect x="94.56410256410257" y="203.6" width="16" height="16.8" fill="#fff" stroke="#aaa" stroke-width="0" rx="5"></rect>
    
    <text x="102.56410256410257" y="213" width="16" fill="#aaa" style="dominant-baseline: middle; text-anchor: middle; font: normal 12px sans-serif">
      2
    </text>
  
  
    <line x1="153.84615384615387" y1="200" x2="153.84615384615387" y2="205" stroke="#aaa" stroke-width="1.5" stroke-dasharray="undefined"></line>
    
  
    <rect x="145.84615384615387" y="203.6" width="16" height="16.8" fill="#fff" stroke="#aaa" stroke-width="0" rx="5"></rect>
    
    <text x="153.84615384615387" y="213" width="16" fill="#aaa" style="dominant-baseline: middle; text-anchor: middle; font: normal 12px sans-serif">
      3
    </text>
  
  
    <line x1="0" y1="200" x2="-5" y2="200" stroke="#aaa" stroke-width="1.5" stroke-dasharray="undefined"></line>
    
  
    <rect x="-20" y="191.6" width="16" height="16.8" fill="#fff" stroke="#aaa" stroke-width="0" rx="5"></rect>
    
    <text x="-12" y="201" width="16" fill="#aaa" style="dominant-baseline: middle; text-anchor: middle; font: normal 12px sans-serif">
      0
    </text>
  
  
    <line x1="0" y1="148.71794871794873" x2="-5" y2="148.71794871794873" stroke="#aaa" stroke-width="1.5" stroke-dasharray="undefined"></line>
    
  
    <rect x="-20" y="140.31794871794872" width="16" height="16.8" fill="#fff" stroke="#aaa" stroke-width="0" rx="5"></rect>
    
    <text x="-12" y="149.71794871794873" width="16" fill="#aaa" style="dominant-baseline: middle; text-anchor: middle; font: normal 12px sans-serif">
      1
    </text>
  
  
    <line x1="0" y1="97.43589743589743" x2="-5" y2="97.43589743589743" stroke="#aaa" stroke-width="1.5" stroke-dasharray="undefined"></line>
    
  
    <rect x="-20" y="89.03589743589743" width="16" height="16.8" fill="#fff" stroke="#aaa" stroke-width="0" rx="5"></rect>
    
    <text x="-12" y="98.43589743589743" width="16" fill="#aaa" style="dominant-baseline: middle; text-anchor: middle; font: normal 12px sans-serif">
      2
    </text>
  
  
    <line x1="0" y1="46.15384615384613" x2="-5" y2="46.15384615384613" stroke="#aaa" stroke-width="1.5" stroke-dasharray="undefined"></line>
    
  
    <rect x="-20" y="37.75384615384613" width="16" height="16.8" fill="#fff" stroke="#aaa" stroke-width="0" rx="5"></rect>
    
    <text x="-12" y="47.15384615384613" width="16" fill="#aaa" style="dominant-baseline: middle; text-anchor: middle; font: normal 12px sans-serif">
      3
    </text>
  
  
    <defs>
      <marker id="h-3" markerWidth="10" markerHeight="5" refY="2.5" orient="auto">
        <polygon points="0 0, 10 2.5, 0 5" fill="#aaa"></polygon>
      </marker>
    </defs>
    <line x1="0" y1="200" x2="180" y2="200" stroke="#aaa" stroke-width="2" marker-end="url(#h-3)"></line>
    
    
  
    <defs>
      <marker id="h-4" markerWidth="10" markerHeight="5" refY="2.5" orient="auto">
        <polygon points="0 0, 10 2.5, 0 5" fill="#aaa"></polygon>
      </marker>
    </defs>
    <line x1="0" y1="200" x2="1.1021821192326179e-14" y2="20" stroke="#aaa" stroke-width="2" marker-end="url(#h-4)"></line>
    
    
  
    <text x="200" y="189" width="20" fill="#aaa" style="dominant-baseline: middle; text-anchor: middle; font: normal 16px sans-serif">
      x
    </text>
  
    <text x="12" y="1" width="20" fill="#aaa" style="dominant-baseline: middle; text-anchor: middle; font: normal 16px sans-serif">
      y
    </text>
  
    <defs>
      <marker id="h-5" markerWidth="10" markerHeight="5" refY="2.5" orient="auto">
        <polygon points="0 0, 10 2.5, 0 5" fill="#000"></polygon>
      </marker>
    </defs>
    <line x1="0" y1="200" x2="140.16733126852725" y2="50.48817998023756" stroke="#000" stroke-width="2" marker-end="url(#h-5)"></line>
    
    <rect x="66.92307692307693" y="107.44871794871794" width="20" height="21" fill="#fff" stroke="#000" stroke-width="1.75" rx="5"></rect>
    
    <text x="76.92307692307693" y="118.94871794871794" width="20" fill="#000" style="dominant-baseline: middle; text-anchor: middle; font: normal 16px sans-serif">
      v
    </text>
  
  
    
    <line x1="153.84615384615387" y1="200" x2="153.84615384615387" y2="35.897435897435884" stroke="#000" stroke-width="1" stroke-dasharray="5,3"></line>
    
  
    <line x1="0" y1="35.897435897435884" x2="153.84615384615387" y2="35.897435897435884" stroke="#000" stroke-width="1" stroke-dasharray="5,3"></line>
    
  
    <rect x="145.84615384615387" y="203.6" width="16" height="16.8" fill="#fff" stroke="#000" stroke-width="1" rx="5"></rect>
    
    <text x="153.84615384615387" y="213" width="16" fill="#000" style="dominant-baseline: middle; text-anchor: middle; font: normal 12px sans-serif">
      3
    </text>
  
  
    <rect x="-23" y="27.497435897435885" width="32" height="16.8" fill="#fff" stroke="#000" stroke-width="1" rx="5"></rect>
    
    <text x="-7" y="36.897435897435884" width="32" fill="#000" style="dominant-baseline: middle; text-anchor: middle; font: normal 12px sans-serif">
      3.2
    </text>
  
  
  
    <path fill="none" stroke="#000" stroke-width="1" stroke-dasharray="undefined" d="M 52.65746968682222 143.92549019835297 A 76.92307692307693 76.92307692307693 0 0 0 4.7101799967205896e-15 123.07692307692307"></path>
    
    <rect x="20.31727328343676" y="120.07873185474986" width="16" height="16.8" fill="#fff" stroke="#000" stroke-width="1" rx="5"></rect>
    
    <text x="28.31727328343676" y="129.47873185474987" width="16" fill="#000" style="dominant-baseline: middle; text-anchor: middle; font: normal 12px sans-serif">
      α
    </text>
  
  
  
    <path fill="none" stroke="#000" stroke-width="1" stroke-dasharray="undefined" d="M 66.66666666666667 200 A 66.66666666666667 66.66666666666667 0 0 0 45.636473728579254 151.40209150523924"></path>
    
    <rect x="53.18364171226542" y="165.12347395768128" width="16" height="16.8" fill="#fff" stroke="#000" stroke-width="1" rx="5"></rect>
    
    <text x="61.18364171226542" y="174.5234739576813" width="16" fill="#000" style="dominant-baseline: middle; text-anchor: middle; font: normal 12px sans-serif">
      β
    </text>
  
  
  </svg>