<svg width="200" height="200" viewBox="-24 -14.399999999999999 238.4 238.4" xmlns="http://www.w3.org/2000/svg" style="background: rgb(255, 255, 255); border-radius: 8px;">
    <defs>
      <pattern id="grid-1-#ccc-#fff-200-200-50-50" width="50" height="50" patternUnits="userSpaceOnUse">
        <path d="M 0 0 L 0 50 50 50 50 0 0 0" fill="#fff" stroke="#ccc" stroke-width="0.5"></path>
      </pattern>
    </defs>
    <rect width="200" height="200" fill="url(#grid-1-#ccc-#fff-200-200-50-50)" style="
    transform: scaleY(-1);
    transform-origin: 0 100px;
  "></rect>
  
    <defs>
      <marker id="arrowhead-4" markerWidth="10" markerHeight="5" refY="2.5" orient="auto">
        <polygon points="0 0, 10 2.5, 0 5" fill="#aaa"></polygon>
      </marker>
      <marker id="arrowbutt-4" markerWidth="4" markerHeight="4" refX="2" refY="2" orient="auto">
        <circle cx="2" cy="2" r="0.5" fill="#aaa"></circle>
      </marker>
    </defs>
    <line x1="0" y1="200" x2="180" y2="200" stroke="#aaa" stroke-width="2" marker-start="url(#arrowbutt-4)" marker-end="url(#arrowhead-4)"></line>
    
    
  
    <defs>
      <marker id="arrowhead-5" markerWidth="10" markerHeight="5" refY="2.5" orient="auto">
        <polygon points="0 0, 10 2.5, 0 5" fill="#aaa"></polygon>
      </marker>
      <marker id="arrowbutt-5" markerWidth="4" markerHeight="4" refX="2" refY="2" orient="auto">
        <circle cx="2" cy="2" r="0.5" fill="#aaa"></circle>
      </marker>
    </defs>
    <line x1="0" y1="200" x2="1.1021821192326179e-14" y2="20" stroke="#aaa" stroke-width="2" marker-start="url(#arrowbutt-5)" marker-end="url(#arrowhead-5)"></line>
    
    
  
    <text x="200" y="211" width="20" fill="#aaa" style="dominant-baseline: middle; text-anchor: middle; font: normal 16px sans-serif">
      x
    </text>
  
    <text x="-10" y="1" width="20" fill="#aaa" style="dominant-baseline: middle; text-anchor: middle; font: normal 16px sans-serif">
      y
    </text>
  
    <line x1="0" y1="200" x2="0" y2="205" stroke="#aaa" stroke-width="1.5" stroke-dasharray="undefined"></line>
  
    <rect x="-4" y="203.6" width="8" height="16.8" fill="#fff" stroke="#aaa" stroke-width="0" rx="5"></rect>
    
    <text x="0" y="213" width="8" fill="#aaa" style="dominant-baseline: middle; text-anchor: middle; font: normal 12px sans-serif">
      
    </text>
  
  
    <line x1="50" y1="200" x2="50" y2="205" stroke="#aaa" stroke-width="1.5" stroke-dasharray="undefined"></line>
  
    <rect x="42" y="203.6" width="16" height="16.8" fill="#fff" stroke="#aaa" stroke-width="0" rx="5"></rect>
    
    <text x="50" y="213" width="16" fill="#aaa" style="dominant-baseline: middle; text-anchor: middle; font: normal 12px sans-serif">
      1
    </text>
  
  
    <line x1="100" y1="200" x2="100" y2="205" stroke="#aaa" stroke-width="1.5" stroke-dasharray="undefined"></line>
  
    <rect x="92" y="203.6" width="16" height="16.8" fill="#fff" stroke="#aaa" stroke-width="0" rx="5"></rect>
    
    <text x="100" y="213" width="16" fill="#aaa" style="dominant-baseline: middle; text-anchor: middle; font: normal 12px sans-serif">
      2
    </text>
  
  
    <line x1="150" y1="200" x2="150" y2="205" stroke="#aaa" stroke-width="1.5" stroke-dasharray="undefined"></line>
  
    <rect x="142" y="203.6" width="16" height="16.8" fill="#fff" stroke="#aaa" stroke-width="0" rx="5"></rect>
    
    <text x="150" y="213" width="16" fill="#aaa" style="dominant-baseline: middle; text-anchor: middle; font: normal 12px sans-serif">
      3
    </text>
  
  
    <line x1="0" y1="200" x2="-5" y2="200" stroke="#aaa" stroke-width="1.5" stroke-dasharray="undefined"></line>
  
    <rect x="-16" y="191.6" width="8" height="16.8" fill="#fff" stroke="#aaa" stroke-width="0" rx="5"></rect>
    
    <text x="-12" y="201" width="8" fill="#aaa" style="dominant-baseline: middle; text-anchor: middle; font: normal 12px sans-serif">
      
    </text>
  
  
    <line x1="0" y1="150" x2="-5" y2="150" stroke="#aaa" stroke-width="1.5" stroke-dasharray="undefined"></line>
  
    <rect x="-20" y="141.6" width="16" height="16.8" fill="#fff" stroke="#aaa" stroke-width="0" rx="5"></rect>
    
    <text x="-12" y="151" width="16" fill="#aaa" style="dominant-baseline: middle; text-anchor: middle; font: normal 12px sans-serif">
      1
    </text>
  
  
    <line x1="0" y1="100" x2="-5" y2="100" stroke="#aaa" stroke-width="1.5" stroke-dasharray="undefined"></line>
  
    <rect x="-20" y="91.6" width="16" height="16.8" fill="#fff" stroke="#aaa" stroke-width="0" rx="5"></rect>
    
    <text x="-12" y="101" width="16" fill="#aaa" style="dominant-baseline: middle; text-anchor: middle; font: normal 12px sans-serif">
      2
    </text>
  
  
    <line x1="0" y1="50" x2="-5" y2="50" stroke="#aaa" stroke-width="1.5" stroke-dasharray="undefined"></line>
  
    <rect x="-20" y="41.6" width="16" height="16.8" fill="#fff" stroke="#aaa" stroke-width="0" rx="5"></rect>
    
    <text x="-12" y="51" width="16" fill="#aaa" style="dominant-baseline: middle; text-anchor: middle; font: normal 12px sans-serif">
      3
    </text>
  
  
    <defs>
      <marker id="arrowhead-6" markerWidth="10" markerHeight="5" refY="2.5" orient="auto">
        <polygon points="0 0, 10 2.5, 0 5" fill="#000"></polygon>
      </marker>
      <marker id="arrowbutt-6" markerWidth="4" markerHeight="4" refX="2" refY="2" orient="auto">
        <circle cx="2" cy="2" r="0.5" fill="#000"></circle>
      </marker>
    </defs>
    <line x1="0" y1="200" x2="136.32117742237338" y2="54.590744082801706" stroke="#000" stroke-width="2" marker-start="url(#arrowbutt-6)" marker-end="url(#arrowhead-6)"></line>
    
    <rect x="65" y="109.5" width="20" height="21" fill="#fff" stroke="#000" stroke-width="1.75" rx="5"></rect>
    
    <text x="75" y="121" width="20" fill="#000" style="dominant-baseline: middle; text-anchor: middle; font: normal 16px sans-serif">
      v
    </text>
  
  
    
    <line x1="150" y1="200" x2="150" y2="40" stroke="#000" stroke-width="1" stroke-dasharray="5,3"></line>
  
    <line x1="0" y1="40" x2="150" y2="40" stroke="#000" stroke-width="1" stroke-dasharray="5,3"></line>
  
    <rect x="142" y="203.6" width="16" height="16.8" fill="#fff" stroke="#000" stroke-width="1" rx="5"></rect>
    
    <text x="150" y="213" width="16" fill="#000" style="dominant-baseline: middle; text-anchor: middle; font: normal 12px sans-serif">
      3
    </text>
  
  
    <rect x="-23" y="31.6" width="32" height="16.8" fill="#fff" stroke="#000" stroke-width="1" rx="5"></rect>
    
    <text x="-7" y="41" width="32" fill="#000" style="dominant-baseline: middle; text-anchor: middle; font: normal 12px sans-serif">
      3.2
    </text>
  
  
  </svg>