<svg width="200" height="200" viewBox="-24 -14.399999999999999 238.4 238.4" xmlns="http://www.w3.org/2000/svg" style="background: rgb(255, 255, 255); border-radius: 8px;">
    <defs>
      <pattern id="grid-1-#ccc-#fff-200-200-66.66666666666667-66.66666666666667" width="66.66666666666667" height="66.66666666666667" patternUnits="userSpaceOnUse">
        <path d="M 0 0 L 0 66.66666666666667 66.66666666666667 66.66666666666667 66.66666666666667 0 0 0" fill="#fff" stroke="#ccc" stroke-width="0.5"></path>
      </pattern>
    </defs>
    <rect width="200" height="200" fill="url(#grid-1-#ccc-#fff-200-200-66.66666666666667-66.66666666666667)" style="
    transform: scaleY(-1);
    transform-origin: 0 100px;
  "></rect>
  
    <line x1="0" y1="200" x2="200" y2="133.33333333333331" stroke="#000" stroke-width="1.75" stroke-dasharray="undefined"></line>
    
  
    <line x1="200" y1="133.33333333333331" x2="66.66666666666667" y2="0" stroke="#000" stroke-width="1.75" stroke-dasharray="undefined"></line>
    
  
    <line x1="0" y1="200" x2="66.66666666666667" y2="0" stroke="#000" stroke-width="1.75" stroke-dasharray="undefined"></line>
    
  
    <path fill="none" stroke="#000" stroke-width="1" stroke-dasharray="5,3" d="M 63.25840077629978 178.95673087019318 A 66.66666666666667 66.66666666666667 0 0 0 21.04326912980681 136.74159922370023"></path>
    
    <rect x="39.14045207910318" y="144.45954792089682" width="16" height="16.8" fill="#fff" stroke="#000" stroke-width="1" rx="5"></rect>
    
    <text x="47.14045207910318" y="153.85954792089683" width="16" fill="#000" style="dominant-baseline: middle; text-anchor: middle; font: normal 12px sans-serif">
      α
    </text>
  
  
  
    <path fill="none" stroke="#000" stroke-width="1" stroke-dasharray="5,3" d="M 45.623397536859855 63.25840077629978 A 66.66666666666667 66.66666666666667 0 0 0 113.80711874576983 47.140452079103184"></path>
    
    <rect x="74.00331581254028" y="56.47859151847255" width="16" height="16.8" fill="#fff" stroke="#000" stroke-width="1" rx="5"></rect>
    
    <text x="82.00331581254028" y="65.87859151847255" width="16" fill="#000" style="dominant-baseline: middle; text-anchor: middle; font: normal 12px sans-serif">
      β
    </text>
  
  
  
    <path fill="none" stroke="#000" stroke-width="1" stroke-dasharray="5,3" d="M 152.85954792089683 86.19288125423014 A 66.66666666666667 66.66666666666667 0 0 0 136.7415992237002 154.3766024631401"></path>
    
    <rect x="127.12140848152745" y="109.59668418745967" width="16" height="16.8" fill="#fff" stroke="#000" stroke-width="1" rx="5"></rect>
    
    <text x="135.12140848152745" y="118.99668418745968" width="16" fill="#000" style="dominant-baseline: middle; text-anchor: middle; font: normal 12px sans-serif">
      γ
    </text>
  
  
  </svg>