<svg width="200" height="200" viewBox="-30 -18 248 248" xmlns="http://www.w3.org/2000/svg" style="background: rgb(255, 255, 255); border-radius: 8px;">
    <defs>
      <pattern id="grid-1-#ccc-#fff-200-200-66.66666666666667-66.66666666666667" width="66.66666666666667" height="66.66666666666667" patternUnits="userSpaceOnUse" patternTransform="translate(0, 0)">
        <path d="M 0 0 L 0 66.66666666666667 66.66666666666667 66.66666666666667 66.66666666666667 0 0 0" fill="#fff" stroke="#ccc" stroke-width="0.5"></path>
      </pattern>
    </defs>
    <rect width="200" height="200" fill="url(#grid-1-#ccc-#fff-200-200-66.66666666666667-66.66666666666667)" style="
    transform: scaleY(-1);
    transform-origin: 0 100px;
  "></rect>
  
    <line x1="0" y1="200" x2="66.66666666666667" y2="0" stroke="#000" stroke-width="1.75" stroke-dasharray="undefined"></line>
    
    <rect x="23.333333333333336" y="89.5" width="20" height="21" fill="#fff" stroke="#000" stroke-width="1.75" rx="5"></rect>
    
    <text x="33.333333333333336" y="101" width="20" fill="#000" style="dominant-baseline: middle; text-anchor: middle; font: normal 16px sans-serif">
      a
    </text>
  
  
  
    <line x1="66.66666666666667" y1="0" x2="200" y2="133.33333333333331" stroke="#000" stroke-width="1.75" stroke-dasharray="undefined"></line>
    
    <rect x="123.33333333333334" y="56.16666666666666" width="20" height="21" fill="#fff" stroke="#000" stroke-width="1.75" rx="5"></rect>
    
    <text x="133.33333333333334" y="67.66666666666666" width="20" fill="#000" style="dominant-baseline: middle; text-anchor: middle; font: normal 16px sans-serif">
      b
    </text>
  
  
  
    <line x1="200" y1="133.33333333333331" x2="0" y2="200" stroke="#000" stroke-width="1.75" stroke-dasharray="undefined"></line>
    
    <rect x="90" y="156.16666666666666" width="20" height="21" fill="#fff" stroke="#000" stroke-width="1.75" rx="5"></rect>
    
    <text x="100" y="167.66666666666666" width="20" fill="#000" style="dominant-baseline: middle; text-anchor: middle; font: normal 16px sans-serif">
      c
    </text>
  
  
  
    <path fill="none" stroke="#000" stroke-width="1" stroke-dasharray="5,3" d="M 66.83343944528286 178.28449915723834 A 70.27283689263066 70.27283689263066 0 0 0 21.71550084276165 133.16656055471714"></path>
    
    <rect x="41.69039949999534" y="141.90960050000467" width="16" height="16.8" fill="#fff" stroke="#000" stroke-width="1" rx="5"></rect>
    
    <text x="49.69039949999534" y="151.30960050000468" width="16" fill="#000" style="dominant-baseline: middle; text-anchor: middle; font: normal 12px sans-serif">
      α
    </text>
  
  
  
    <path fill="none" stroke="#000" stroke-width="1" stroke-dasharray="5,3" d="M 47.243732246719055 59.77764550790732 A 62.8539361054709 62.8539361054709 0 0 0 111.11111111111111 44.444444444444464"></path>
    
    <rect x="73.33962665058412" y="52.71727684755738" width="16" height="16.8" fill="#fff" stroke="#000" stroke-width="1" rx="5"></rect>
    
    <text x="81.33962665058412" y="62.11727684755738" width="16" fill="#000" style="dominant-baseline: middle; text-anchor: middle; font: normal 12px sans-serif">
      β
    </text>
  
  
  
    <path fill="none" stroke="#000" stroke-width="1" stroke-dasharray="5,3" d="M 150.30960050000468 83.64293383333798 A 70.27283689263066 70.27283689263066 0 0 0 133.16656055471714 155.048834176095"></path>
    
    <rect x="123.66880718459382" y="108.52846535574645" width="16" height="16.8" fill="#fff" stroke="#000" stroke-width="1" rx="5"></rect>
    
    <text x="131.66880718459382" y="117.92846535574645" width="16" fill="#000" style="dominant-baseline: middle; text-anchor: middle; font: normal 12px sans-serif">
      γ
    </text>
  
  
  </svg>